<svg xmlns="http://www.w3.org/2000/svg" viewBox="0 0 3840 2160" preserveAspectRatio="xMidYMid slice">
  <defs>
    <linearGradient id="sky" x1="0" y1="0" x2="0" y2="1"><stop offset="0" stop-color="#e8edf3"/><stop offset="0.55" stop-color="#f4f5f2"/><stop offset="1" stop-color="#dfe7de"/></linearGradient>
    <linearGradient id="field" x1="0" y1="0" x2="1" y2="1"><stop offset="0" stop-color="#b7c7aa"/><stop offset="1" stop-color="#e7e1c8"/></linearGradient>
    <filter id="blur"><feGaussianBlur stdDeviation="22"/></filter>
  </defs>
  <rect width="3840" height="2160" fill="url(#sky)"/>
  <circle cx="2860" cy="360" r="220" fill="#fff" opacity=".35" filter="url(#blur)"/>
  <path d="M0 900 C560 720 860 760 1320 850 C1790 940 2260 720 3840 820 L3840 2160 L0 2160 Z" fill="#d5ded1" opacity=".75"/>
  <path d="M0 1120 C620 1000 1140 1040 1750 1110 C2460 1190 3020 990 3840 1050 L3840 2160 L0 2160 Z" fill="#c8d4bd" opacity=".75"/>
  <path d="M0 1350 C720 1210 1120 1260 1660 1360 C2300 1480 3000 1260 3840 1320 L3840 2160 L0 2160 Z" fill="url(#field)" opacity=".92"/>
  <g opacity=".20" stroke="#78906f" stroke-width="6" fill="none">
    <path d="M-100 1740 C600 1500 1200 1500 1900 1680 C2600 1860 3260 1720 3980 1480"/>
    <path d="M-100 1880 C720 1600 1300 1620 1920 1810 C2540 2000 3240 1900 3970 1640"/>
    <path d="M-100 2020 C780 1740 1380 1770 1940 1960 C2520 2150 3200 2040 3970 1800"/>
  </g>
  <g opacity=".45" fill="#5f6f62">
    <rect x="1620" y="790" width="350" height="170" rx="18"/>
    <path d="M1580 795 L1795 650 L2010 795 Z"/>
    <rect x="1700" y="845" width="70" height="115" fill="#425144"/>
    <rect x="1820" y="850" width="80" height="65" fill="#e7ece6" opacity=".7"/>
  </g>
  <rect width="3840" height="2160" fill="#f8fafc" opacity=".18"/>
</svg>
